{"title":"The Crazies-AC3-XviD-DVDRip[Eng]2010 2Lions-Team","uid":5635663,"size":1464977567,"categoryP":"video","categoryS":"movies","magnet":"?xt=urn:btih:ee39a447d98fab27bca322a2fb229f3e5812d400&amp;dn=The+Crazies-AC3-XviD-DVDRip%5BEng%5D2010+2Lions-Team&amp;tr=udp%3A%2F%2Ftracker.openbittorrent.com%3A80&amp;tr=udp%3A%2F%2Fopen.demonii.com%3A1337&amp;tr=udp%3A%2F%2Ftracker.coppersurfer.tk%3A6969&amp;tr=udp%3A%2F%2Fexodus.desync.com%3A6969","seeders":0,"leechers":0,"uploader":"FatFreddy31","files":-1,"time":1276880370,"description":"As a toxin begins to turn the residents of Ogden Marsh, Iowa into violent psychopaths, sheriff David Dutton tries to make sense of the situation while he, his wife, and two other unaffected townspeople band together in a fight for survival.\n &lt;a href=&quot;\nhttp://www.imdb.com/title/tt0455407/&quot; rel=&quot;nofollow&quot; target=&quot;_NEW&quot;&gt;\nhttp://www.imdb.com/title/tt0455407/&lt;/a&gt;\n\nSubtitles (srt) : Dutch, English.\n\nCovers included.\n\nDe bewoners van een klein plaatsje in Kansas krijgen te maken met een vervuiling van hun watervoorziening. Het water blijkt te zijn besmet door een mysterieus gif, dat is vrijgekomen na een vliegtuigcrash vlakbij het plaatsje. Langzaamaan beginnen de inwoners gestoord te worden...\n &lt;a href=&quot;\nhttp://www.moviemeter.nl/film/45379&quot; rel=&quot;nofollow&quot; target=&quot;_NEW&quot;&gt;\nhttp://www.moviemeter.nl/film/45379&lt;/a&gt;\n\nOndertitels (srt) : Engels, Nederlands.\n\nHoesjes bijgevoegd.\n\nGeneral\nComplete name                    : The Crazies-AC3-XviD-DVDRip[Eng]2010 2Lions-TeamThe Crazies-AC3-XviD-DVDRip[Eng]2010.avi\nFormat                           : AVI\nFormat/Info                      : Audio Video Interleave\nFile size                        : 1.36 GiB\nDuration                         : 1h 40mn\nOverall bit rate                 : 1 937 Kbps\nWriting application              : VirtualDubMod 1.5.4.1 (build 2178/release)\nWriting library                  : VirtualDubMod build 2178/release\n\nVideo\nID                               : 0\nFormat                           : MPEG-4 Visual\nFormat profile                   : Simple@L3\nFormat settings, BVOP            : No\nFormat settings, QPel            : No\nFormat settings, GMC             : No warppoints\nFormat settings, Matrix          : Default (H.263)\nCodec ID                         : XVID\nCodec ID/Hint                    : XviD\nDuration                         : 1h 40mn\nBit rate                         : 1 480 Kbps\nWidth                            : 720 pixels\nHeight                           : 304 pixels\nDisplay aspect ratio             : 2.35:1\nFrame rate                       : 23.976 fps\nResolution                       : 8 bits\nColorimetry                      : 4:2:0\nScan type                        : Progressive\nBits/(Pixel*Frame)               : 0.282\nStream size                      : 1.04 GiB (76%)\nWriting library                  : XviD 1.1.2 (UTC 2006-11-01)\n\nAudio\nID                               : 1\nFormat                           : AC-3\nFormat/Info                      : Audio Coding 3\nFormat_Settings_ModeExtension    : CM (complete main)\nCodec ID                         : 2000\nDuration                         : 1h 40mn\nBit rate mode                    : Constant\nBit rate                         : 448 Kbps\nChannel(s)                       : 6 channels\nChannel positions                : Front: L C R, Side: L R, LFE\nSampling rate                    : 48.0 KHz\nStream size                      : 323 MiB (23%)\nAlignment                        : Split accross interleaves\nInterleave, duration             : 42 ms (1.00 video frame)\nInterleave, preload duration     : 500 ms\n\nThanks to Simply ReleaseS for the source.. Nice job again!\n\nBrought to you by \n2Lions Team\n\nmeer zien??\nKom dan eens kijken op ons forum \n                    &lt;a href=&quot;\nhttp://www.2lions.ons-forum.nl&quot; rel=&quot;nofollow&quot; target=&quot;_NEW&quot;&gt;\nhttp://www.2lions.ons-forum.nl&lt;/a&gt;\n\n2Lions the site to be for all your Dutch MOVIES and more\n\n******************************************\n\nDON T HIT AND RUN Niet gelijk afhaken als de FILM binnen is blijf seeden. \n\nDon`t quit after you finished the download, but keep seeding\n\nThere are fake torrents from uploaders who use our team name.\nThose are not ours, or members from our team.\nWe 2Lions-Team are not responsible for the fake posts on our name\n\nWij 2Lions-Team zijn niet verantwoordelijk voor die zieke FAKE posten die op onze naam worden gedaan\n\nPlease check our site !!!\n\nto the fakers , get a life !!!","torrent":{"xt":"urn:btih:ee39a447d98fab27bca322a2fb229f3e5812d400","amp;dn":"The+Crazies-AC3-XviD-DVDRip%5BEng%5D2010+2Lions-Team","amp;tr":["udp%3A%2F%2Ftracker.openbittorrent.com%3A80","udp%3A%2F%2Fopen.demonii.com%3A1337","udp%3A%2F%2Ftracker.coppersurfer.tk%3A6969","udp%3A%2F%2Fexodus.desync.com%3A6969"],"infoHash":"ee39a447d98fab27bca322a2fb229f3e5812d400","infoHashBuffer":{"type":"Buffer","data":[238,57,164,71,217,143,171,39,188,163,34,162,251,34,159,62,88,18,212,0]},"announce":[],"urlList":[]}}